<?xml version="1.0" encoding="utf-8"?>
<!-- Generator: Adobe Illustrator 26.0.3, SVG Export Plug-In . SVG Version: 6.00 Build 0)  -->
<svg version="1.1" id="Layer_1" xmlns="http://www.w3.org/2000/svg" xmlns:xlink="http://www.w3.org/1999/xlink" x="0px" y="0px"
	 viewBox="0 0 775.4 775.4" style="enable-background:new 0 0 775.4 775.4;" xml:space="preserve">
<style type="text/css">
	.st0{fill:#236445;}
	.st1{fill:#FFFFFF;}
	.st2{fill:none;stroke:#000000;stroke-width:8.5039;stroke-miterlimit:10;}
	.st3{fill:#FFFFFF;stroke:#000000;stroke-width:8.5039;stroke-miterlimit:10;}
	.st4{stroke:#000000;stroke-width:8.5039;stroke-miterlimit:10;}
	.st5{fill:none;stroke:#000000;stroke-width:8.6994;stroke-miterlimit:10;}
</style>
<circle class="st0" cx="387.7" cy="387.7" r="387.7"/>
<g>
	<g>
		<path class="st1" d="M340.2,367V260.1h45.7c28.3,0,42.5,8.8,42.5,28.1c0,9.5-4.4,18.5-14.1,21.8c10.3,1.8,20.8,11.6,20.8,24.5
			c0,18.6-12.6,32.5-35.4,32.5H340.2z M359.9,276.8v27.8h25.8c15.5,0,24.2-2.1,24.2-14.9c0-8.9-6.2-12.9-20.8-12.9H359.9z
			 M359.9,350.4h37.6c10.3,0,18.7-4.5,18.7-14.9c0-12.2-11.6-14.8-20.4-14.8h-36V350.4z"/>
	</g>
	<g>
		<g>
			<polygon class="st1" points="241.4,342 178.4,343.4 178.4,326.1 241.4,327.5 241.4,342 			"/>
			<polygon class="st1" points="597,343.4 534,342 534,327.5 597,326.1 597,343.4 			"/>
		</g>
		<g>
			<polygon class="st1" points="562.1,218.7 510.3,254.6 501.8,242.9 552,204.7 562.1,218.7 			"/>
		</g>
		<g>
			<polygon class="st1" points="460.6,138.3 439.8,197.8 426,193.3 444.2,133 460.6,138.3 			"/>
		</g>
		<g>
			<polygon class="st1" points="331.2,133 349.4,193.3 335.6,197.8 314.8,138.3 331.2,133 			"/>
		</g>
		<g>
			<polygon class="st1" points="223.4,204.7 273.6,242.9 265.1,254.6 213.3,218.7 223.4,204.7 			"/>
		</g>
	</g>
	<path class="st1" d="M393.6,583.4c-0.1-3.2,2.2-5.9,5.1-6l28.5-0.3c7,0,13.8-3,18.6-8.1l150.1-163.3c1.5-1.6,0.3-4.2-1.8-4.2H181.4
		c-2.2,0-3.3,2.6-1.8,4.2l150,163.1c4.9,5.3,11.7,8.2,18.8,8.2l28.3,0.3c2.9,0,5.2,2.7,5.1,6l-1.7,33.7c-0.2,5.9-4.9,10.6-10.8,10.7
		l-90.3,2.1c-3.5,0.1-6.3,3-6.2,6.5l0.1,6.2l114.9-0.2l114.9,0.2l0.1-6.2c0-3.5-2.7-6.4-6.2-6.5l-90.3-2.1
		c-5.9-0.1-10.6-4.8-10.8-10.7L393.6,583.4z M361.6,415.4h52.1c2.6,0,4.6,2.4,4.2,5l-24.2,137.7c-0.5,2.9-3.1,5.1-6.1,5.1l0,0
		c-3,0-5.5-2.1-6.1-5.1l-24.2-137.7C357,417.8,359,415.4,361.6,415.4z M365.1,563.2L365.1,563.2c-1.7,0-3.2-0.9-4-2.3l-76.4-139.1
		c-1.6-2.8,0.5-6.3,3.7-6.3h48.1c3.5,0,6.5,2.5,7.1,5.9l25.9,136.5C370.1,560.6,368,563.2,365.1,563.2z M438.8,415.4h48.1
		c3.2,0,5.3,3.5,3.7,6.3l-76.4,139.1c-0.8,1.4-2.3,2.3-4,2.3l0,0c-2.8,0-5-2.6-4.5-5.4l25.9-136.5
		C432.4,417.9,435.4,415.4,438.8,415.4z M435.5,559.5c-2.1,2.3-5.2,3.7-8.4,3.7h-0.8L506,422.3c2.4-4.3,6.9-6.9,11.8-6.9H559
		c3.7,0,5.6,4.4,3.1,7.1L435.5,559.5z M339.8,559.4L213.2,422.5c-2.5-2.7-0.6-7.1,3.1-7.1h42.5c4.1,0,7.8,2.2,9.9,5.8l80,141.4
		c0.1,0.2,0,0.5-0.3,0.5h0C345.1,563.2,342,561.8,339.8,559.4z"/>
</g>
</svg>
